<?xml version="1.0" encoding="utf-8"?>
<!-- Generator: Adobe Illustrator 21.1.0, SVG Export Plug-In . SVG Version: 6.00 Build 0)  -->
<svg width="100px" height="30px" version="1.1" id="Layer_1" xmlns="http://www.w3.org/2000/svg" xmlns:xlink="http://www.w3.org/1999/xlink" x="0px" y="0px"
	 viewBox="0 0 76.3 30" style="enable-background:new 0 0 76.3 30;" xml:space="preserve">
<style type="text/css">
	.st0{fill-rule:evenodd;clip-rule:evenodd;fill:#EC1C24;}
	.st1{fill-rule:evenodd;clip-rule:evenodd;fill:#FFFFFF;}
	.st2{fill:#FFFFFF;}
</style>
<g>
	<path class="st0" d="M37.5,0c21.3,0,38.7,6.7,38.7,15c0,8.3-17.4,15-38.7,15c-10.9,0-20.8-1.8-27.9-4.6c6.4,1.9,14.7,3,23.6,3
		c20.5,0,37.2-5.9,37.2-13c0-7.2-16.7-13-37.2-13C22,2.3,11.8,4.1,4.9,6.9C11.8,2.8,23.9,0,37.5,0"/>
	<g>
		<path class="st1" d="M1.9,22.1c-0.1,0.1-0.1,0.2-0.2,0.3c-0.1,0.1-0.1,0.2-0.2,0.3c0.3,0,0.5,0,0.8,0c-0.1-0.1-0.1-0.2-0.2-0.3
			C2,22.3,1.9,22.2,1.9,22.1z"/>
		<path class="st1" d="M35.2,21.1H0V24h35.2c1.1,0,2-0.7,2-1.5v0C37.1,21.7,36.3,21.1,35.2,21.1z M2.7,23.2
			c-0.1-0.1-0.1-0.1-0.1-0.2c0-0.1-0.1-0.1-0.1-0.2c-0.3,0-0.7,0-1,0C1.3,22.9,1.3,23,1.2,23c0,0.1-0.1,0.1-0.1,0.2
			c-0.1,0-0.2,0-0.4,0C0.9,23,1,22.8,1.2,22.6c0.2-0.2,0.3-0.4,0.5-0.7c0.1,0,0.3,0,0.4,0c0.2,0.2,0.3,0.4,0.5,0.7
			C2.7,22.8,2.9,23,3,23.2C2.9,23.2,2.8,23.2,2.7,23.2z M7.4,22c-0.3,0-0.6,0-0.8,0c0,0.2,0,0.4,0,0.6c0,0.2,0,0.4,0,0.6
			c-0.1,0-0.2,0-0.4,0c0-0.2,0-0.4,0-0.6c0-0.2,0-0.4,0-0.6c-0.3,0-0.6,0-0.8,0c0-0.1,0-0.1,0-0.2c0.7,0,1.3,0,2,0
			C7.4,21.9,7.4,22,7.4,22z M12.2,22.6c0,0.2,0,0.4,0,0.7c-0.1,0-0.2,0-0.4,0c0-0.1,0-0.2,0-0.3c0-0.1,0-0.2,0-0.3
			c-0.5,0-0.9,0-1.4,0c0,0.1,0,0.2,0,0.3c0,0.1,0,0.2,0,0.3c-0.1,0-0.2,0-0.4,0c0-0.2,0-0.4,0-0.7c0-0.2,0-0.4,0-0.7
			c0.1,0,0.2,0,0.4,0c0,0.1,0,0.2,0,0.3c0,0.1,0,0.2,0,0.3c0.5,0,0.9,0,1.4,0c0-0.1,0-0.2,0-0.3c0-0.1,0-0.2,0-0.3
			c0.1,0,0.2,0,0.4,0C12.2,22.1,12.2,22.3,12.2,22.6z M16.8,23.2c-0.6,0-1.1,0-1.7,0c0-0.2,0-0.4,0-0.7c0-0.2,0-0.4,0-0.7
			c0.1,0,0.2,0,0.4,0c0,0.2,0,0.4,0,0.6c0,0.2,0,0.4,0,0.6c0.4,0,0.9,0,1.3,0C16.8,23.1,16.8,23.2,16.8,23.2z M21.4,23.2
			c-0.6,0-1.3,0-1.9,0c0-0.2,0-0.4,0-0.7c0-0.2,0-0.4,0-0.7c0.6,0,1.2,0,1.9,0c0,0.1,0,0.1,0,0.2c-0.5,0-1,0-1.5,0
			c0,0.1,0,0.1,0,0.2c0,0.1,0,0.1,0,0.2c0.5,0,0.9,0,1.4,0c0,0.1,0,0.1,0,0.2c-0.5,0-0.9,0-1.4,0c0,0.1,0,0.2,0,0.2
			c0,0.1,0,0.2,0,0.2c0.5,0,1,0,1.5,0C21.4,23.1,21.4,23.2,21.4,23.2z M26,22c-0.3,0-0.6,0-0.8,0c0,0.2,0,0.4,0,0.6
			c0,0.2,0,0.4,0,0.6c-0.1,0-0.2,0-0.4,0c0-0.2,0-0.4,0-0.6c0-0.2,0-0.4,0-0.6c-0.3,0-0.6,0-0.8,0c0-0.1,0-0.1,0-0.2
			c0.7,0,1.3,0,2,0C26,21.9,26,22,26,22z M29.1,22.6c0,0.2,0,0.4,0,0.7c-0.1,0-0.2,0-0.4,0c0-0.2,0-0.4,0-0.7c0-0.2,0-0.4,0-0.7
			c0.1,0,0.2,0,0.4,0C29.1,22.1,29.1,22.3,29.1,22.6z M34.2,22.9c-0.1,0.1-0.1,0.1-0.2,0.2c-0.2,0.1-0.5,0.1-0.8,0.1
			c-0.4,0-0.7-0.1-0.9-0.2c-0.1-0.1-0.2-0.1-0.2-0.2C32,22.8,32,22.6,32,22.5c0-0.1,0-0.2,0.1-0.3c0.1-0.1,0.1-0.2,0.2-0.2
			c0.2-0.1,0.5-0.2,0.9-0.2c0.3,0,0.5,0,0.7,0.1c0.2,0.1,0.3,0.2,0.3,0.3c-0.1,0-0.2,0-0.3,0c0-0.1-0.1-0.2-0.2-0.2
			c-0.1,0-0.3-0.1-0.5-0.1c-0.3,0-0.5,0-0.6,0.1c-0.1,0-0.1,0.1-0.2,0.2c0,0.1-0.1,0.1-0.1,0.2c0,0.1,0,0.2,0.1,0.2
			c0,0.1,0.1,0.1,0.2,0.2c0.2,0.1,0.4,0.1,0.6,0.1c0.2,0,0.4,0,0.5-0.1c0.1-0.1,0.2-0.2,0.2-0.3c0.1,0,0.2,0,0.3,0
			C34.3,22.8,34.2,22.9,34.2,22.9z"/>
	</g>
	<path class="st2" d="M48.8,10.8c0.6-0.8,1.3-1.6,1.9-2.3c2,0,4,0,6,0c0.8,0,1.4,0.1,1.9,0.3c0.5,0.2,0.7,0.6,0.8,1
		c0.1,0.4,0,0.9-0.3,1.4c-0.3,0.6-0.8,1.2-1.5,1.7c-0.7,0.5-1.6,1.1-2.8,1.6c0.1,0.8,0.2,1.6,0.4,2.2c0.2,0.6,0.5,1.4,0.9,2.2
		c-1.2,0.5-2.4,1-3.5,1.6c-0.3-0.5-0.5-1.1-0.7-1.7c-0.2-0.6-0.3-1.2-0.4-1.8c-0.1-0.6-0.2-1.1-0.2-1.6c0-0.5,0-0.9,0-1.4
		c0.5-0.2,1-0.5,1.6-0.7c0.5-0.3,1.1-0.5,1.5-0.8c0.5-0.3,0.8-0.6,1-0.9c0.1-0.3,0.1-0.5-0.1-0.5c-0.2-0.1-0.6-0.1-1.1-0.1
		C52.3,10.8,50.5,10.8,48.8,10.8 M45.2,18.8c0.7-1.3,1.3-2.6,2-3.9c0.7-1.3,1.3-2.6,2-3.9c1.1,0,2.2,0,3.2,0c-0.7,1.3-1.3,2.6-2,3.9
		c-0.7,1.3-1.3,2.6-2,3.9C47.4,18.8,46.3,18.8,45.2,18.8z M48.3,8.4c-0.2,0.8-0.3,1.6-0.5,2.3c-1.7,0-3.3,0-5,0
		c-0.3,0.5-0.5,1-0.8,1.5c1.5,0,3,0,4.5,0c-0.7,0.8-1.3,1.6-2,2.3c-1.3,0-2.5,0-3.8,0c-0.3,0.6-0.6,1.2-0.9,1.8c1.8,0,3.5,0,5.3,0
		c-0.6,0.8-1.3,1.6-1.9,2.3c-2.6,0-5.2,0-7.8,0c0.9-1.7,1.8-3.5,2.7-5.2c0.9-1.7,1.8-3.5,2.7-5.2C43.3,8.4,45.8,8.4,48.3,8.4z
		 M23.9,18.1c0.8-1.6,1.7-3.2,2.5-4.8c0.8-1.6,1.6-3.2,2.5-4.8c1.1,0,2.2,0,3.2,0c-0.3,0.5-0.6,1.1-0.8,1.6
		c-0.3,0.5-0.6,1.1-0.8,1.6c1.1,0,2.3,0,3.4,0c0.3-0.5,0.6-1.1,0.8-1.6c0.3-0.5,0.6-1.1,0.8-1.6c1.1,0,2.2,0,3.2,0
		c-0.9,1.7-1.8,3.5-2.7,5.2c-0.9,1.7-1.8,3.5-2.7,5.2c-1.1,0-2.2,0-3.2,0c0.4-0.8,0.8-1.6,1.2-2.4c0.4-0.8,0.8-1.6,1.2-2.4
		c-1.1,0-2.3,0-3.4,0c-0.3,0.6-0.6,1.1-0.8,1.6c-0.3,0.5-0.6,1.1-0.8,1.6c-0.3,0.7-0.5,1.2-0.5,1.5c-1.3,0.5-2.5,1-3.7,1.6
		C23.1,19.8,23.4,19.1,23.9,18.1z M15.6,16.5c1,0,2,0,2.9,0c0.4,0,0.7,0,0.9-0.1c0.2,0,0.4-0.1,0.4-0.3C20,16,20,16,20,15.9
		c0-0.1-0.1-0.2-0.1-0.3c-0.1-0.1-0.1-0.2-0.1-0.2c-0.4-0.7-0.7-1.4-1.1-2.1c-0.2-0.3-0.3-0.6-0.4-0.8c-0.1-0.2-0.1-0.5-0.1-0.8
		c0-0.3,0.1-0.6,0.3-0.9c0.2-0.4,0.6-0.9,1-1.2c0.4-0.4,1-0.7,1.6-0.9c0.6-0.2,1.3-0.3,2-0.3c1.2,0,2.3,0,3.5,0
		c-0.2,0.8-0.3,1.6-0.4,2.3c-0.9,0-1.8,0-2.7,0c-0.4,0-0.7,0-0.9,0.1c-0.2,0-0.3,0.1-0.4,0.3c-0.1,0.1-0.1,0.2-0.1,0.3
		c0,0.1,0.1,0.2,0.2,0.4c0.4,0.7,0.8,1.4,1.2,2.1c0.2,0.4,0.4,0.8,0.5,1.2c0.1,0.4,0,0.8-0.3,1.3c-0.2,0.4-0.5,0.7-0.8,1
		c-0.3,0.3-0.7,0.5-1.1,0.7c-0.4,0.2-0.8,0.3-1.3,0.4c-0.4,0.1-0.9,0.1-1.4,0.1c-1.3,0-2.5,0-3.8,0C15.3,18,15.5,17.3,15.6,16.5z
		 M18.2,8.4c-0.9,1.7-1.8,3.5-2.7,5.2c-0.9,1.7-1.8,3.5-2.7,5.2c-1.1,0-2.2,0-3.2,0c0.9-1.7,1.8-3.5,2.7-5.2
		c0.9-1.7,1.8-3.5,2.7-5.2C16,8.4,17.1,8.4,18.2,8.4z M0.9,18.1c0.8-1.6,1.7-3.2,2.5-4.8c0.8-1.6,1.7-3.2,2.5-4.8c2.4,0,4.9,0,7.3,0
		c-0.1,0.8-0.3,1.6-0.5,2.3c-1.6,0-3.2,0-4.8,0c-0.3,0.6-0.6,1.1-0.8,1.7c1.5,0,2.9,0,4.4,0c-0.7,0.8-1.3,1.6-2,2.3
		c-1.2,0-2.4,0-3.6,0c-0.4,0.9-0.9,1.7-1.3,2.6C4.2,18,4,18.5,4,18.8c-1.2,0.5-2.5,1.1-3.7,1.6c0-0.3,0-0.7,0.1-1
		C0.5,19,0.6,18.6,0.9,18.1z"/>
</g>
</svg>
